<svg xmlns="http://www.w3.org/2000/svg" xmlns:xlink="http://www.w3.org/1999/xlink" width="500" zoomAndPan="magnify" viewBox="0 0 375 374.999991" height="500" preserveAspectRatio="xMidYMid meet" version="1.0"><defs><clipPath id="id1"><path d="M 70.8125 62.390625 L 304 62.390625 L 304 300.890625 L 70.8125 300.890625 Z M 70.8125 62.390625 " clip-rule="nonzero"/></clipPath></defs><path fill="#0e002b" d="M 187.5 0 C 83.945312 0 0 83.945312 0 187.5 C 0 291.054688 83.945312 375 187.5 375 C 291.054688 375 375 291.054688 375 187.5 C 375 83.945312 291.054688 0 187.5 0 " fill-opacity="1" fill-rule="nonzero"/><g clip-path="url(#id1)"><path fill="#f5f5ef" d="M 304 143.304688 C 304 143.816406 303.984375 144.328125 303.960938 144.832031 C 303.953125 144.976562 303.941406 145.117188 303.9375 145.261719 C 303.914062 145.65625 303.882812 146.054688 303.847656 146.453125 C 303.835938 146.566406 303.828125 146.683594 303.816406 146.796875 C 303.765625 147.316406 303.699219 147.824219 303.621094 148.332031 C 303.621094 148.347656 303.617188 148.367188 303.617188 148.382812 C 303.539062 148.886719 303.449219 149.386719 303.347656 149.878906 C 303.335938 149.941406 303.324219 150.003906 303.3125 150.066406 C 301.144531 160.546875 294.003906 169.453125 283.890625 173.777344 C 285.09375 177.085938 285.707031 180.554688 285.707031 184.09375 C 285.707031 188.792969 284.648438 193.296875 282.558594 197.496094 C 288.742188 204.253906 292.144531 213.015625 292.144531 222.171875 C 292.144531 242.347656 275.730469 258.753906 255.566406 258.753906 C 255.414062 258.753906 255.265625 258.75 255.109375 258.742188 L 254.941406 258.738281 C 250.054688 263.695312 243.589844 266.898438 236.707031 267.765625 C 231.3125 287.277344 213.425781 300.898438 193.15625 300.898438 C 180.769531 300.898438 169.230469 295.984375 160.628906 287.066406 C 153.242188 293.140625 143.917969 296.484375 134.339844 296.484375 C 126.492188 296.484375 118.847656 294.269531 112.226562 290.078125 C 112.214844 290.078125 112.199219 290.082031 112.1875 290.082031 C 111.789062 290.148438 111.386719 290.207031 110.976562 290.261719 C 110.839844 290.277344 110.703125 290.296875 110.566406 290.3125 C 110.210938 290.355469 109.851562 290.398438 109.496094 290.425781 C 109.257812 290.449219 109.023438 290.460938 108.785156 290.480469 C 108.511719 290.496094 108.238281 290.523438 107.957031 290.535156 C 107.417969 290.558594 106.878906 290.574219 106.34375 290.574219 C 90.4375 290.574219 76.945312 280.058594 72.4375 265.613281 C 72.09375 264.503906 71.796875 263.371094 71.558594 262.210938 C 71.324219 261.058594 71.144531 259.882812 71.019531 258.691406 C 70.90625 257.496094 70.847656 256.289062 70.847656 255.066406 C 70.847656 247.757812 73.054688 240.738281 77.238281 234.757812 C 76.707031 233.847656 76.222656 232.921875 75.765625 231.984375 C 75.722656 231.902344 75.6875 231.816406 75.644531 231.738281 C 75.414062 231.246094 75.1875 230.753906 74.972656 230.253906 C 74.933594 230.160156 74.890625 230.070312 74.855469 229.976562 C 74.636719 229.453125 74.429688 228.929688 74.230469 228.402344 C 74.15625 228.199219 74.082031 228 74.011719 227.796875 C 73.886719 227.441406 73.761719 227.085938 73.648438 226.722656 C 73.578125 226.503906 73.5 226.28125 73.4375 226.058594 C 73.289062 225.574219 73.152344 225.082031 73.019531 224.597656 C 72.949219 224.328125 72.882812 224.0625 72.820312 223.792969 C 72.742188 223.472656 72.671875 223.160156 72.597656 222.839844 C 72.539062 222.582031 72.488281 222.328125 72.433594 222.066406 C 72.332031 221.5625 72.242188 221.054688 72.160156 220.550781 C 72.117188 220.3125 72.089844 220.070312 72.054688 219.832031 C 71.992188 219.40625 71.941406 218.976562 71.886719 218.550781 C 71.867188 218.390625 71.84375 218.230469 71.832031 218.070312 C 71.773438 217.488281 71.730469 216.898438 71.695312 216.3125 C 71.683594 216.144531 71.679688 215.980469 71.671875 215.8125 C 71.644531 215.1875 71.625 214.570312 71.625 213.949219 C 71.625 191.105469 90.203125 172.53125 113.035156 172.53125 C 113.308594 172.53125 113.582031 172.535156 113.855469 172.546875 C 113.386719 170.777344 113.148438 168.957031 113.148438 167.132812 C 113.148438 163.527344 114.074219 159.96875 115.828125 156.828125 C 109.308594 151.871094 105.578125 144.34375 105.578125 136.148438 C 105.578125 122.726562 115.578125 111.664062 128.882812 110.3125 C 128.867188 109.859375 128.855469 109.40625 128.855469 108.957031 C 128.855469 87.054688 146.667969 69.238281 168.566406 69.238281 C 178.222656 69.238281 187.5 72.734375 194.75 79.101562 C 200.320312 68.78125 211.003906 62.390625 222.730469 62.390625 C 234.316406 62.390625 244.96875 68.6875 250.574219 78.828125 C 250.578125 78.828125 250.585938 78.828125 250.589844 78.828125 C 251.191406 78.757812 251.789062 78.699219 252.394531 78.65625 C 252.40625 78.65625 252.417969 78.65625 252.429688 78.65625 C 253.023438 78.621094 253.625 78.597656 254.226562 78.597656 C 270.5 78.597656 283.742188 91.839844 283.742188 108.121094 C 283.742188 109.617188 283.621094 111.136719 283.390625 112.636719 C 283.457031 112.664062 283.515625 112.691406 283.574219 112.714844 C 283.730469 112.78125 283.878906 112.847656 284.027344 112.910156 C 284.382812 113.066406 284.734375 113.226562 285.078125 113.386719 C 285.148438 113.421875 285.226562 113.457031 285.296875 113.492188 C 295.683594 118.507812 302.628906 128.429688 303.8125 139.839844 C 303.824219 139.925781 303.828125 140.015625 303.835938 140.105469 C 303.875 140.527344 303.90625 140.949219 303.929688 141.371094 C 303.9375 141.5 303.949219 141.632812 303.953125 141.769531 C 303.988281 142.273438 304 142.789062 304 143.304688 Z M 304 143.304688 " fill-opacity="1" fill-rule="nonzero"/><path fill="#231f20" d="M 303.304688 150.066406 C 303.320312 150.003906 303.332031 149.941406 303.34375 149.878906 C 303.441406 149.382812 303.53125 148.882812 303.609375 148.382812 C 303.609375 148.367188 303.617188 148.347656 303.617188 148.332031 C 303.691406 147.820312 303.757812 147.308594 303.8125 146.796875 C 303.824219 146.683594 303.835938 146.566406 303.839844 146.453125 C 303.875 146.054688 303.90625 145.65625 303.929688 145.261719 C 303.9375 145.117188 303.949219 144.976562 303.953125 144.832031 C 303.976562 144.328125 303.996094 143.816406 303.996094 143.304688 C 303.996094 142.789062 303.976562 142.273438 303.953125 141.761719 C 303.949219 141.632812 303.941406 141.5 303.929688 141.363281 C 303.90625 140.941406 303.871094 140.519531 303.835938 140.097656 C 303.828125 140.011719 303.816406 139.921875 303.8125 139.832031 C 302.628906 128.421875 295.6875 118.5 285.296875 113.488281 C 285.226562 113.453125 285.148438 113.417969 285.078125 113.382812 C 284.734375 113.214844 284.382812 113.058594 284.027344 112.90625 C 283.878906 112.839844 283.722656 112.773438 283.574219 112.710938 C 283.511719 112.6875 283.449219 112.65625 283.390625 112.632812 C 283.621094 111.128906 283.742188 109.609375 283.742188 108.113281 C 283.742188 91.835938 270.5 78.589844 254.226562 78.589844 C 253.625 78.589844 253.023438 78.617188 252.429688 78.652344 C 252.417969 78.652344 252.40625 78.652344 252.394531 78.652344 C 251.789062 78.6875 251.191406 78.746094 250.589844 78.824219 C 250.585938 78.824219 250.578125 78.824219 250.574219 78.824219 C 244.96875 68.6875 234.320312 62.390625 222.730469 62.390625 C 211.003906 62.390625 200.316406 68.78125 194.746094 79.097656 C 187.496094 72.730469 178.214844 69.230469 168.558594 69.230469 C 146.660156 69.230469 128.847656 87.046875 128.847656 108.949219 C 128.847656 109.40625 128.859375 109.859375 128.878906 110.304688 C 115.570312 111.660156 105.570312 122.714844 105.570312 136.144531 C 105.570312 144.339844 109.308594 151.859375 115.820312 156.824219 C 114.070312 159.964844 113.140625 163.523438 113.140625 167.125 C 113.140625 168.949219 113.378906 170.765625 113.847656 172.542969 C 113.574219 172.53125 113.308594 172.523438 113.03125 172.523438 C 90.191406 172.523438 71.621094 191.105469 71.621094 213.941406 C 71.621094 214.566406 71.636719 215.1875 71.667969 215.804688 C 71.671875 215.972656 71.683594 216.140625 71.691406 216.304688 C 71.726562 216.894531 71.769531 217.476562 71.828125 218.0625 C 71.84375 218.222656 71.863281 218.382812 71.878906 218.542969 C 71.929688 218.972656 71.980469 219.398438 72.046875 219.828125 C 72.082031 220.070312 72.117188 220.308594 72.152344 220.546875 C 72.238281 221.050781 72.324219 221.554688 72.425781 222.058594 C 72.480469 222.320312 72.539062 222.578125 72.59375 222.832031 C 72.664062 223.152344 72.734375 223.472656 72.8125 223.789062 C 72.878906 224.054688 72.945312 224.324219 73.015625 224.589844 C 73.144531 225.078125 73.28125 225.5625 73.429688 226.050781 C 73.496094 226.269531 73.574219 226.488281 73.644531 226.714844 C 73.761719 227.078125 73.882812 227.433594 74.007812 227.789062 C 74.078125 227.992188 74.148438 228.195312 74.226562 228.398438 C 74.421875 228.925781 74.628906 229.453125 74.847656 229.96875 C 74.890625 230.066406 74.933594 230.15625 74.96875 230.25 C 75.183594 230.75 75.40625 231.246094 75.640625 231.734375 C 75.679688 231.816406 75.714844 231.898438 75.757812 231.976562 C 76.214844 232.914062 76.703125 233.84375 77.230469 234.75 C 73.054688 240.738281 70.847656 247.757812 70.847656 255.066406 C 70.847656 256.289062 70.90625 257.503906 71.03125 258.691406 C 71.148438 259.882812 71.335938 261.058594 71.570312 262.210938 C 71.808594 263.363281 72.101562 264.5 72.449219 265.613281 C 76.953125 280.058594 90.449219 290.574219 106.355469 290.574219 C 106.890625 290.574219 107.429688 290.558594 107.96875 290.535156 C 108.25 290.523438 108.523438 290.496094 108.796875 290.480469 C 109.035156 290.460938 109.269531 290.445312 109.507812 290.425781 C 109.863281 290.398438 110.222656 290.355469 110.578125 290.3125 C 110.714844 290.296875 110.851562 290.277344 110.988281 290.261719 C 111.390625 290.207031 111.792969 290.148438 112.199219 290.082031 C 112.210938 290.082031 112.226562 290.078125 112.238281 290.078125 C 118.859375 294.269531 126.503906 296.484375 134.351562 296.484375 C 143.929688 296.484375 153.253906 293.140625 160.640625 287.066406 C 169.242188 295.992188 180.78125 300.898438 193.167969 300.898438 C 213.445312 300.898438 231.324219 287.285156 236.71875 267.765625 C 243.601562 266.898438 250.066406 263.695312 254.953125 258.738281 L 255.121094 258.742188 C 255.269531 258.75 255.425781 258.753906 255.578125 258.753906 C 275.75 258.753906 292.15625 242.339844 292.15625 222.171875 C 292.15625 213.007812 288.753906 204.253906 282.570312 197.496094 C 284.65625 193.304688 285.71875 188.796875 285.71875 184.09375 C 285.71875 180.554688 285.105469 177.085938 283.902344 173.777344 C 293.996094 169.460938 301.140625 160.550781 303.304688 150.066406 Z M 285.105469 184.09375 C 285.105469 188.765625 284.039062 193.25 281.9375 197.40625 L 281.839844 197.59375 L 281.984375 197.746094 C 288.152344 204.414062 291.550781 213.09375 291.550781 222.171875 C 291.550781 242.019531 275.40625 258.160156 255.566406 258.160156 C 235.726562 258.160156 219.582031 242.015625 219.582031 222.171875 C 219.582031 222.007812 219.453125 221.875 219.285156 221.875 C 219.121094 221.875 218.988281 222.007812 218.988281 222.171875 C 218.988281 230.09375 221.523438 237.429688 225.824219 243.421875 C 223.703125 256.515625 214.054688 267.128906 201.210938 270.460938 C 183.367188 275.097656 165.082031 264.351562 160.449219 246.503906 C 160.40625 246.34375 160.242188 246.25 160.085938 246.289062 C 159.925781 246.332031 159.832031 246.492188 159.871094 246.652344 C 163.84375 261.957031 177.6875 272.136719 192.816406 272.136719 C 195.636719 272.136719 198.511719 271.777344 201.367188 271.035156 C 214.246094 267.691406 223.964844 257.15625 226.3125 244.09375 C 232.71875 252.625 242.765625 258.269531 254.125 258.714844 C 249.332031 263.398438 243.085938 266.40625 236.445312 267.195312 L 236.25 267.21875 L 236.199219 267.414062 C 230.9375 286.773438 213.234375 300.296875 193.160156 300.296875 C 180.851562 300.296875 169.386719 295.378906 160.871094 286.449219 L 160.679688 286.246094 L 160.464844 286.425781 C 153.152344 292.523438 143.875 295.878906 134.347656 295.878906 C 126.835938 295.878906 119.515625 293.8125 113.117188 289.910156 C 129.472656 286.746094 141.863281 272.324219 141.863281 255.054688 C 141.863281 254.890625 141.734375 254.757812 141.566406 254.757812 C 141.402344 254.757812 141.269531 254.890625 141.269531 255.054688 C 141.269531 272.320312 128.667969 286.691406 112.1875 289.46875 C 111.777344 289.542969 111.367188 289.601562 110.957031 289.65625 C 110.832031 289.671875 110.707031 289.683594 110.582031 289.703125 C 110.214844 289.75 109.847656 289.785156 109.480469 289.820312 C 109.253906 289.839844 109.035156 289.855469 108.808594 289.875 C 108.523438 289.890625 108.238281 289.917969 107.957031 289.929688 C 107.429688 289.953125 106.894531 289.96875 106.363281 289.96875 C 87.097656 289.980469 71.441406 274.316406 71.441406 255.066406 C 71.441406 247.96875 73.566406 241.148438 77.582031 235.316406 C 84.84375 247.324219 98.019531 255.363281 113.042969 255.363281 C 113.207031 255.363281 113.339844 255.234375 113.339844 255.066406 C 113.339844 254.902344 113.207031 254.769531 113.042969 254.769531 C 96.914062 254.769531 82.949219 245.371094 76.320312 231.757812 C 76.28125 231.667969 76.234375 231.578125 76.191406 231.484375 C 75.949219 230.96875 75.710938 230.453125 75.484375 229.921875 C 75.46875 229.882812 75.441406 229.832031 75.425781 229.792969 C 75.207031 229.28125 75.003906 228.757812 74.808594 228.234375 C 74.730469 228.027344 74.660156 227.828125 74.582031 227.617188 C 74.457031 227.261719 74.332031 226.90625 74.21875 226.542969 C 74.125 226.253906 74.035156 225.96875 73.945312 225.675781 C 73.828125 225.285156 73.714844 224.886719 73.609375 224.488281 C 73.539062 224.222656 73.472656 223.949219 73.402344 223.679688 C 73.324219 223.367188 73.253906 223.050781 73.179688 222.738281 C 73.109375 222.410156 73.039062 222.082031 72.972656 221.757812 C 72.890625 221.335938 72.8125 220.914062 72.746094 220.492188 C 72.707031 220.25 72.671875 220.003906 72.640625 219.761719 C 72.582031 219.339844 72.527344 218.914062 72.480469 218.484375 C 72.460938 218.332031 72.445312 218.183594 72.425781 218.027344 C 72.367188 217.453125 72.324219 216.875 72.296875 216.292969 C 72.285156 216.128906 72.277344 215.960938 72.273438 215.792969 C 72.242188 215.183594 72.226562 214.570312 72.226562 213.953125 C 72.226562 191.445312 90.539062 173.128906 113.042969 173.128906 C 113.332031 173.128906 113.625 173.140625 113.914062 173.148438 L 114.085938 173.15625 C 111.789062 175.808594 110.273438 179.0625 109.746094 182.621094 C 109.011719 187.566406 110.238281 192.507812 113.214844 196.527344 C 113.273438 196.605469 113.363281 196.648438 113.453125 196.648438 C 113.511719 196.648438 113.574219 196.628906 113.628906 196.589844 C 113.761719 196.488281 113.789062 196.304688 113.6875 196.171875 C 110.808594 192.277344 109.617188 187.496094 110.328125 182.703125 C 111.046875 177.910156 113.582031 173.6875 117.476562 170.808594 C 121.371094 167.929688 126.152344 166.734375 130.945312 167.445312 C 135.734375 168.164062 139.957031 170.703125 142.835938 174.597656 C 142.933594 174.726562 143.121094 174.757812 143.253906 174.65625 C 143.382812 174.5625 143.414062 174.371094 143.3125 174.242188 C 140.335938 170.21875 135.972656 167.597656 131.027344 166.859375 C 126.082031 166.117188 121.140625 167.351562 117.121094 170.328125 C 116.164062 171.035156 115.296875 171.816406 114.507812 172.667969 C 114.003906 170.855469 113.742188 168.992188 113.742188 167.125 C 113.742188 163.535156 114.6875 159.992188 116.46875 156.886719 L 116.597656 156.664062 L 116.585938 156.652344 C 117.359375 155.140625 122.605469 145.894531 135.066406 146.214844 C 135.242188 146.210938 135.367188 146.089844 135.367188 145.925781 C 135.367188 145.757812 135.242188 145.621094 135.078125 145.621094 C 122.570312 145.3125 117.101562 154.40625 116.113281 156.28125 C 109.792969 151.429688 106.171875 144.113281 106.171875 136.144531 C 106.171875 122.9375 116.082031 112.070312 129.214844 110.867188 L 129.496094 110.84375 L 129.496094 110.828125 C 130.734375 110.65625 136.484375 110.097656 142.503906 113.515625 C 142.550781 113.542969 142.601562 113.558594 142.652344 113.558594 C 142.753906 113.558594 142.855469 113.503906 142.914062 113.410156 C 142.996094 113.269531 142.945312 113.082031 142.800781 113.007812 C 136.746094 109.5625 130.933594 110.042969 129.484375 110.234375 C 129.464844 109.804688 129.453125 109.382812 129.453125 108.949219 C 129.453125 87.375 147 69.824219 168.570312 69.824219 C 178.203125 69.824219 187.464844 73.367188 194.644531 79.792969 L 194.929688 80.046875 L 194.949219 80.011719 C 196.664062 81.289062 206.304688 89.289062 206.851562 108.125 C 206.859375 108.285156 206.988281 108.417969 207.148438 108.417969 L 207.15625 108.417969 C 207.320312 108.410156 207.445312 108.273438 207.445312 108.113281 C 206.886719 88.8125 196.847656 80.675781 195.226562 79.488281 C 200.671875 69.296875 211.1875 62.984375 222.730469 62.984375 C 234.023438 62.984375 244.410156 69.078125 249.9375 78.914062 C 242.835938 79.953125 236.328125 83.539062 231.632812 89.113281 C 231.523438 89.238281 231.542969 89.429688 231.667969 89.53125 C 231.792969 89.636719 231.980469 89.621094 232.089844 89.496094 C 236.796875 83.894531 243.375 80.34375 250.527344 79.429688 C 251.105469 79.351562 251.6875 79.296875 252.257812 79.257812 C 252.308594 79.25 252.355469 79.25 252.402344 79.246094 C 253.019531 79.203125 253.632812 79.179688 254.226562 79.179688 C 270.171875 79.179688 283.148438 92.15625 283.148438 108.105469 C 283.148438 109.53125 283.035156 110.976562 282.820312 112.40625 C 279.152344 110.980469 275.171875 110.191406 271.011719 110.175781 C 268.089844 106.285156 264.359375 103.011719 259.976562 100.578125 C 251.777344 96.023438 242.296875 94.933594 233.277344 97.511719 C 233.117188 97.558594 233.027344 97.71875 233.074219 97.878906 C 233.121094 98.035156 233.28125 98.128906 233.441406 98.082031 C 242.308594 95.546875 251.636719 96.617188 259.695312 101.09375 C 267.757812 105.570312 273.59375 112.921875 276.128906 121.789062 C 281.335938 140.003906 270.839844 159.042969 252.710938 164.394531 C 251.738281 160.390625 250.0625 156.554688 247.691406 153.039062 C 242.449219 145.261719 234.492188 139.988281 225.285156 138.191406 C 225.125 138.164062 224.96875 138.265625 224.933594 138.429688 C 224.902344 138.589844 225.003906 138.746094 225.171875 138.78125 C 234.226562 140.542969 242.046875 145.730469 247.199219 153.378906 C 252.355469 161.027344 254.21875 170.226562 252.457031 179.277344 C 250.691406 188.332031 245.507812 196.15625 237.859375 201.308594 C 230.210938 206.464844 221.015625 208.335938 211.964844 206.566406 C 211.804688 206.535156 211.652344 206.636719 211.613281 206.804688 C 211.578125 206.96875 211.6875 207.117188 211.851562 207.152344 C 214.113281 207.59375 216.390625 207.8125 218.640625 207.8125 C 225.5625 207.8125 232.324219 205.757812 238.191406 201.804688 C 245.972656 196.558594 251.242188 188.601562 253.039062 179.390625 C 253.980469 174.542969 253.890625 169.65625 252.839844 164.984375 C 271.300781 159.554688 281.996094 140.164062 276.699219 121.628906 C 275.570312 117.679688 273.796875 114.023438 271.46875 110.78125 C 275.636719 110.855469 279.621094 111.710938 283.265625 113.21875 C 283.433594 113.285156 283.59375 113.355469 283.757812 113.429688 C 284.128906 113.589844 284.496094 113.753906 284.859375 113.925781 C 284.90625 113.949219 284.953125 113.976562 285 113.992188 C 294.910156 118.792969 302.03125 128.464844 303.222656 139.878906 C 303.234375 139.972656 303.242188 140.0625 303.246094 140.160156 C 303.289062 140.570312 303.320312 140.976562 303.34375 141.386719 C 303.347656 141.519531 303.359375 141.648438 303.367188 141.78125 C 303.390625 142.285156 303.402344 142.789062 303.402344 143.292969 C 303.402344 143.800781 303.382812 144.296875 303.367188 144.796875 C 303.359375 144.9375 303.347656 145.074219 303.34375 145.21875 C 303.320312 145.605469 303.289062 145.996094 303.253906 146.375 C 303.242188 146.496094 303.234375 146.613281 303.21875 146.734375 C 303.109375 147.753906 302.957031 148.765625 302.753906 149.753906 C 302.742188 149.816406 302.730469 149.878906 302.71875 149.941406 C 299.644531 164.703125 286.53125 175.828125 270.875 175.828125 C 270.707031 175.828125 270.578125 175.957031 270.578125 176.125 C 270.578125 176.289062 270.707031 176.421875 270.875 176.421875 C 275.273438 176.421875 279.476562 175.546875 283.324219 173.984375 C 284.507812 177.234375 285.105469 180.632812 285.105469 184.09375 Z M 285.105469 184.09375 " fill-opacity="1" fill-rule="nonzero"/></g></svg>